<svg width="108" height="89" viewBox="0 0 108 89" fill="none" xmlns="http://www.w3.org/2000/svg">
<path d="M69.7812 7.52246C70.7147 5.72607 73.2853 5.72608 74.2188 7.52246L98.8086 54.8477C99.6732 56.5118 98.4662 58.4999 96.5908 58.5H47.4092C45.5338 58.4999 44.3268 56.5118 45.1914 54.8477L69.7812 7.52246Z" fill="#5365AC" fill-opacity="0.8" stroke="#E7E8EF" stroke-width="3"/>
<path d="M33.7812 7.52246C34.7147 5.72607 37.2853 5.72608 38.2188 7.52246L62.8086 54.8477C63.6732 56.5118 62.4662 58.4999 60.5908 58.5H11.4092C9.5338 58.4999 8.32676 56.5118 9.19141 54.8477L33.7812 7.52246Z" fill="#5365AC" fill-opacity="0.8" stroke="#E7E8EF" stroke-width="3"/>
<path d="M51.7812 7.53223C52.7143 5.7344 55.2857 5.73441 56.2188 7.53223L84.2773 61.5986C85.1409 63.2628 83.9335 65.25 82.0586 65.25H25.9414C24.0665 65.25 22.8591 63.2628 23.7227 61.5986L51.7812 7.53223Z" fill="#5365AC" stroke="#E7E8EF" stroke-width="3"/>
</svg>
