<svg width="81" height="58" viewBox="0 0 81 58" fill="none" xmlns="http://www.w3.org/2000/svg">
<path d="M1.04608 20V9.81818H5.12278C5.87183 9.81818 6.4966 9.92921 6.99707 10.1513C7.49754 10.3733 7.87373 10.6816 8.12562 11.076C8.37752 11.4671 8.50346 11.9179 8.50346 12.4283C8.50346 12.826 8.42392 13.1757 8.26483 13.4773C8.10574 13.7756 7.88699 14.0208 7.60858 14.2131C7.33348 14.402 7.01861 14.5362 6.66397 14.6158V14.7152C7.05176 14.7318 7.41468 14.8411 7.75275 15.0433C8.09414 15.2455 8.37089 15.5289 8.58301 15.8935C8.79513 16.2547 8.90119 16.6856 8.90119 17.1861C8.90119 17.7263 8.76696 18.2086 8.49849 18.6328C8.23334 19.0537 7.84058 19.3868 7.32022 19.6321C6.79986 19.8774 6.15853 20 5.39622 20H1.04608ZM3.19877 18.2401H4.95375C5.55365 18.2401 5.99115 18.1257 6.26625 17.897C6.54134 17.665 6.67889 17.3568 6.67889 16.9723C6.67889 16.6906 6.61094 16.442 6.47505 16.2266C6.33916 16.0111 6.14527 15.8421 5.89338 15.7195C5.6448 15.5968 5.34816 15.5355 5.00346 15.5355H3.19877V18.2401ZM3.19877 14.0788H4.79466C5.08964 14.0788 5.35147 14.0275 5.58017 13.9247C5.81217 13.8187 5.99447 13.6695 6.12704 13.4773C6.26293 13.285 6.33088 13.0547 6.33088 12.7862C6.33088 12.4183 6.19996 12.1217 5.93812 11.8963C5.6796 11.6709 5.3117 11.5582 4.83443 11.5582H3.19877V14.0788ZM13.7423 20.1491C12.9568 20.1491 12.2806 19.9901 11.7139 19.6719C11.1504 19.3504 10.7162 18.8963 10.4113 18.3097C10.1064 17.7197 9.95392 17.022 9.95392 16.2166C9.95392 15.4311 10.1064 14.7417 10.4113 14.1484C10.7162 13.5552 11.1454 13.0928 11.699 12.7614C12.2558 12.4299 12.9087 12.2642 13.6578 12.2642C14.1615 12.2642 14.6305 12.3454 15.0647 12.5078C15.5022 12.6669 15.8834 12.9072 16.2082 13.2287C16.5363 13.5502 16.7915 13.9545 16.9738 14.4418C17.1561 14.9257 17.2472 15.4924 17.2472 16.142V16.7237H10.7991V15.4112H15.2536C15.2536 15.1063 15.1874 14.8362 15.0548 14.6009C14.9222 14.3655 14.7383 14.1816 14.5029 14.049C14.2709 13.9131 14.0008 13.8452 13.6926 13.8452C13.3711 13.8452 13.086 13.9197 12.8374 14.0689C12.5922 14.2147 12.3999 14.4119 12.2607 14.6605C12.1215 14.9058 12.0503 15.1792 12.047 15.4808V16.7287C12.047 17.1065 12.1166 17.433 12.2558 17.7081C12.3983 17.9832 12.5988 18.1953 12.8573 18.3445C13.1159 18.4936 13.4224 18.5682 13.7771 18.5682C14.0124 18.5682 14.2278 18.535 14.4234 18.4688C14.6189 18.4025 14.7863 18.303 14.9255 18.1705C15.0647 18.0379 15.1708 17.8755 15.2437 17.6832L17.2025 17.8125C17.1031 18.2831 16.8992 18.6941 16.591 19.0455C16.2861 19.3935 15.8917 19.6652 15.4078 19.8608C14.9272 20.053 14.372 20.1491 13.7423 20.1491ZM22.6911 12.3636V13.9545H18.0924V12.3636H22.6911ZM19.1365 10.5341H21.2544V17.6534C21.2544 17.849 21.2842 18.0014 21.3438 18.1108C21.4035 18.2169 21.4864 18.2914 21.5924 18.3345C21.7018 18.3776 21.8277 18.3991 21.9703 18.3991C22.0697 18.3991 22.1691 18.3909 22.2686 18.3743C22.368 18.3544 22.4442 18.3395 22.4972 18.3295L22.8303 19.9055C22.7243 19.9387 22.5751 19.9768 22.3829 20.0199C22.1907 20.0663 21.957 20.0945 21.6819 20.1044C21.1715 20.1243 20.724 20.0563 20.3396 19.9006C19.9584 19.7448 19.6618 19.5028 19.4497 19.1747C19.2375 18.8466 19.1331 18.4323 19.1365 17.9318V10.5341ZM28.1325 12.3636V13.9545H23.5338V12.3636H28.1325ZM24.5779 10.5341H26.6958V17.6534C26.6958 17.849 26.7256 18.0014 26.7852 18.1108C26.8449 18.2169 26.9278 18.2914 27.0338 18.3345C27.1432 18.3776 27.2691 18.3991 27.4117 18.3991C27.5111 18.3991 27.6105 18.3909 27.71 18.3743C27.8094 18.3544 27.8856 18.3395 27.9387 18.3295L28.2718 19.9055C28.1657 19.9387 28.0165 19.9768 27.8243 20.0199C27.6321 20.0663 27.3984 20.0945 27.1233 20.1044C26.6129 20.1243 26.1655 20.0563 25.781 19.9006C25.3998 19.7448 25.1032 19.5028 24.8911 19.1747C24.6789 18.8466 24.5745 18.4323 24.5779 17.9318V10.5341ZM32.9102 20.1491C32.1247 20.1491 31.4486 19.9901 30.8818 19.6719C30.3184 19.3504 29.8842 18.8963 29.5793 18.3097C29.2744 17.7197 29.1219 17.022 29.1219 16.2166C29.1219 15.4311 29.2744 14.7417 29.5793 14.1484C29.8842 13.5552 30.3134 13.0928 30.8669 12.7614C31.4237 12.4299 32.0767 12.2642 32.8257 12.2642C33.3295 12.2642 33.7985 12.3454 34.2327 12.5078C34.6702 12.6669 35.0513 12.9072 35.3762 13.2287C35.7043 13.5502 35.9595 13.9545 36.1418 14.4418C36.3241 14.9257 36.4152 15.4924 36.4152 16.142V16.7237H29.9671V15.4112H34.4216C34.4216 15.1063 34.3553 14.8362 34.2227 14.6009C34.0902 14.3655 33.9062 14.1816 33.6709 14.049C33.4389 13.9131 33.1688 13.8452 32.8605 13.8452C32.539 13.8452 32.254 13.9197 32.0054 14.0689C31.7602 14.2147 31.5679 14.4119 31.4287 14.6605C31.2895 14.9058 31.2182 15.1792 31.2149 15.4808V16.7287C31.2149 17.1065 31.2845 17.433 31.4237 17.7081C31.5663 17.9832 31.7668 18.1953 32.0253 18.3445C32.2838 18.4936 32.5904 18.5682 32.945 18.5682C33.1804 18.5682 33.3958 18.535 33.5914 18.4688C33.7869 18.4025 33.9543 18.303 34.0935 18.1705C34.2327 18.0379 34.3387 17.8755 34.4117 17.6832L36.3705 17.8125C36.271 18.2831 36.0672 18.6941 35.759 19.0455C35.454 19.3935 35.0596 19.6652 34.5757 19.8608C34.0951 20.053 33.54 20.1491 32.9102 20.1491ZM37.7973 20V12.3636H39.8506V13.696H39.9301C40.0693 13.2221 40.303 12.8641 40.6311 12.6222C40.9593 12.3769 41.3371 12.2543 41.7646 12.2543C41.8707 12.2543 41.9851 12.2609 42.1077 12.2741C42.2303 12.2874 42.338 12.3056 42.4308 12.3288V14.2081C42.3314 14.1783 42.1939 14.1518 42.0182 14.1286C41.8425 14.1054 41.6818 14.0938 41.536 14.0938C41.2244 14.0938 40.946 14.1617 40.7007 14.2976C40.4588 14.4302 40.2665 14.6158 40.124 14.8544C39.9848 15.093 39.9152 15.3681 39.9152 15.6797V20H37.7973ZM46.4181 11.593V9.81818H54.7803V11.593H51.6631V20H49.5352V11.593H46.4181ZM58.2355 15.5852V20H56.1176V9.81818H58.1759V13.7109H58.2654C58.4377 13.2602 58.7161 12.9072 59.1006 12.652C59.4851 12.3935 59.9673 12.2642 60.5473 12.2642C61.0776 12.2642 61.54 12.3802 61.9344 12.6122C62.3321 12.8409 62.6404 13.1707 62.8591 13.6016C63.0812 14.0291 63.1905 14.5412 63.1872 15.1378V20H61.0693V15.5156C61.0727 15.045 60.9533 14.6787 60.7114 14.4169C60.4727 14.1551 60.138 14.0241 59.7071 14.0241C59.4188 14.0241 59.1636 14.0855 58.9415 14.2081C58.7227 14.3307 58.5504 14.5097 58.4244 14.745C58.3018 14.977 58.2388 15.2571 58.2355 15.5852ZM67.0315 20.1442C66.5443 20.1442 66.1101 20.0597 65.729 19.8906C65.3478 19.7183 65.0462 19.4647 64.8241 19.13C64.6054 18.7919 64.496 18.371 64.496 17.8672C64.496 17.4429 64.5739 17.0866 64.7297 16.7983C64.8854 16.5099 65.0976 16.2779 65.366 16.1023C65.6345 15.9266 65.9394 15.794 66.2808 15.7045C66.6255 15.6151 66.9868 15.5521 67.3646 15.5156C67.8087 15.4692 68.1667 15.4261 68.4385 15.3864C68.7103 15.3433 68.9075 15.2803 69.0301 15.1974C69.1527 15.1146 69.214 14.992 69.214 14.8295V14.7997C69.214 14.4848 69.1146 14.2412 68.9157 14.0689C68.7202 13.8965 68.4418 13.8104 68.0805 13.8104C67.6994 13.8104 67.3961 13.8949 67.1707 14.0639C66.9453 14.2296 66.7962 14.4384 66.7233 14.6903L64.7645 14.5312C64.8639 14.0672 65.0595 13.6662 65.3511 13.3281C65.6428 12.9867 66.019 12.7249 66.4797 12.5426C66.9437 12.357 67.4806 12.2642 68.0905 12.2642C68.5147 12.2642 68.9207 12.3139 69.3085 12.4134C69.6996 12.5128 70.046 12.6669 70.3476 12.8757C70.6525 13.0845 70.8928 13.353 71.0684 13.6811C71.2441 14.0059 71.3319 14.3954 71.3319 14.8494V20H69.3234V18.9411H69.2638C69.1411 19.1797 68.9771 19.3902 68.7716 19.5724C68.5661 19.7514 68.3192 19.8923 68.0308 19.995C67.7425 20.0945 67.4094 20.1442 67.0315 20.1442ZM67.6381 18.6825C67.9496 18.6825 68.2247 18.6212 68.4633 18.4986C68.702 18.3726 68.8892 18.2036 69.0251 17.9915C69.161 17.7794 69.229 17.5391 69.229 17.2706V16.4602C69.1627 16.5033 69.0715 16.5431 68.9555 16.5795C68.8428 16.6127 68.7152 16.6442 68.5727 16.674C68.4302 16.7005 68.2877 16.7254 68.1452 16.7486C68.0026 16.7685 67.8734 16.7867 67.7574 16.8033C67.5088 16.8397 67.2917 16.8977 67.1061 16.9773C66.9205 17.0568 66.7763 17.1645 66.6736 17.3004C66.5708 17.433 66.5194 17.5987 66.5194 17.7976C66.5194 18.0859 66.6238 18.3063 66.8327 18.4588C67.0448 18.608 67.3132 18.6825 67.6381 18.6825ZM75.093 15.5852V20H72.9751V12.3636H74.9935V13.7109H75.083C75.252 13.2668 75.5354 12.9155 75.9331 12.657C76.3309 12.3951 76.8131 12.2642 77.3799 12.2642C77.9102 12.2642 78.3725 12.3802 78.767 12.6122C79.1614 12.8442 79.468 13.1757 79.6867 13.6065C79.9055 14.0341 80.0148 14.5445 80.0148 15.1378V20H77.8969V15.5156C77.9002 15.0483 77.7809 14.6837 77.539 14.4219C77.297 14.1567 76.9639 14.0241 76.5397 14.0241C76.2546 14.0241 76.0028 14.0855 75.784 14.2081C75.5686 14.3307 75.3995 14.5097 75.2769 14.745C75.1576 14.977 75.0963 15.2571 75.093 15.5852Z" fill="#333333"/>
<path d="M31.092 26.624H33.996C33.948 28.592 33.964 30.536 34.044 32.456C34.14 34.36 34.276 36.144 34.452 37.808C34.644 39.472 34.868 40.944 35.124 42.224C35.396 43.504 35.692 44.504 36.012 45.224C36.348 45.944 36.692 46.304 37.044 46.304C37.252 46.304 37.412 45.984 37.524 45.344C37.652 44.688 37.732 43.656 37.764 42.248C38.068 42.568 38.428 42.88 38.844 43.184C39.276 43.488 39.676 43.72 40.044 43.88C39.916 45.288 39.724 46.376 39.468 47.144C39.212 47.912 38.86 48.44 38.412 48.728C37.98 49.016 37.412 49.16 36.708 49.16C35.956 49.16 35.292 48.856 34.716 48.248C34.14 47.656 33.644 46.824 33.228 45.752C32.828 44.68 32.492 43.424 32.22 41.984C31.948 40.544 31.724 38.984 31.548 37.304C31.388 35.624 31.268 33.88 31.188 32.072C31.124 30.264 31.092 28.448 31.092 26.624ZM23.052 43.592L24.324 41.648C24.964 41.984 25.644 42.376 26.364 42.824C27.084 43.256 27.772 43.704 28.428 44.168C29.084 44.616 29.604 45.032 29.988 45.416L28.644 47.624C28.26 47.224 27.748 46.784 27.108 46.304C26.484 45.824 25.812 45.352 25.092 44.888C24.388 44.408 23.708 43.976 23.052 43.592ZM22.404 33.752H30.636V35.96H22.404V33.752ZM22.068 37.568H31.164V39.824H22.068V37.568ZM24.66 35.456L27.132 35.816C26.828 36.792 26.492 37.816 26.124 38.888C25.756 39.96 25.38 41 24.996 42.008C24.628 43 24.276 43.904 23.94 44.72L21.948 43.616C22.156 43.088 22.38 42.496 22.62 41.84C22.86 41.168 23.1 40.464 23.34 39.728C23.596 38.992 23.836 38.256 24.06 37.52C24.3 36.784 24.5 36.096 24.66 35.456ZM36.18 34.208L38.892 34.616C38.252 37.944 37.26 40.832 35.916 43.28C34.588 45.712 32.82 47.672 30.612 49.16C30.5 48.984 30.316 48.76 30.06 48.488C29.82 48.232 29.564 47.976 29.292 47.72C29.036 47.464 28.804 47.256 28.596 47.096C30.724 45.832 32.388 44.112 33.588 41.936C34.804 39.744 35.668 37.168 36.18 34.208ZM34.356 28.064L35.94 26.456C36.484 26.728 37.06 27.056 37.668 27.44C38.276 27.824 38.764 28.184 39.132 28.52L37.452 30.32C37.116 29.984 36.652 29.608 36.06 29.192C35.468 28.76 34.9 28.384 34.356 28.064ZM20.532 29.888H39.468V32.504H20.532V29.888ZM19.02 29.888H21.684V36.872C21.684 37.768 21.652 38.752 21.588 39.824C21.524 40.896 21.404 41.984 21.228 43.088C21.052 44.192 20.796 45.256 20.46 46.28C20.14 47.304 19.708 48.232 19.164 49.064C19.02 48.888 18.812 48.688 18.54 48.464C18.284 48.24 18.012 48.016 17.724 47.792C17.436 47.584 17.196 47.44 17.004 47.36C17.628 46.352 18.076 45.24 18.348 44.024C18.636 42.808 18.82 41.576 18.9 40.328C18.98 39.08 19.02 37.928 19.02 36.872V29.888ZM27.876 38.792H30.228C30.1 39.896 29.9 40.96 29.628 41.984C29.372 43.008 28.98 43.968 28.452 44.864C27.924 45.76 27.212 46.568 26.316 47.288C25.42 48.024 24.268 48.648 22.86 49.16C22.732 48.856 22.524 48.504 22.236 48.104C21.964 47.704 21.7 47.392 21.444 47.168C22.708 46.752 23.74 46.248 24.54 45.656C25.34 45.064 25.956 44.4 26.388 43.664C26.836 42.928 27.164 42.152 27.372 41.336C27.596 40.504 27.764 39.656 27.876 38.792ZM41.892 31.664H63.036V34.208H41.892V31.664ZM44.892 38.84H54.684V41.264H44.892V38.84ZM50.988 28.424H53.844V38.288H50.988V28.424ZM49.644 32.384L52.068 33.32C51.556 34.088 50.956 34.816 50.268 35.504C49.596 36.192 48.86 36.84 48.06 37.448C47.26 38.04 46.42 38.576 45.54 39.056C44.676 39.52 43.788 39.92 42.876 40.256C42.748 40.016 42.572 39.76 42.348 39.488C42.124 39.2 41.892 38.92 41.652 38.648C41.428 38.376 41.22 38.144 41.028 37.952C41.892 37.696 42.74 37.376 43.572 36.992C44.42 36.592 45.22 36.152 45.972 35.672C46.74 35.176 47.436 34.656 48.06 34.112C48.684 33.552 49.212 32.976 49.644 32.384ZM55.044 32.384C55.636 33.152 56.396 33.88 57.324 34.568C58.252 35.256 59.276 35.872 60.396 36.416C61.532 36.944 62.684 37.376 63.852 37.712C63.644 37.888 63.42 38.128 63.18 38.432C62.94 38.72 62.708 39.016 62.484 39.32C62.276 39.608 62.1 39.872 61.956 40.112C61.044 39.808 60.148 39.424 59.268 38.96C58.388 38.496 57.54 37.968 56.724 37.376C55.924 36.784 55.18 36.152 54.492 35.48C53.804 34.792 53.196 34.072 52.668 33.32L55.044 32.384ZM58.74 26.648L60.804 28.856C59.604 29.096 58.308 29.312 56.916 29.504C55.524 29.68 54.076 29.832 52.572 29.96C51.084 30.072 49.58 30.168 48.06 30.248C46.556 30.328 45.1 30.384 43.692 30.416C43.66 30.08 43.58 29.68 43.452 29.216C43.324 28.752 43.188 28.376 43.044 28.088C44.436 28.04 45.852 27.976 47.292 27.896C48.748 27.816 50.164 27.72 51.54 27.608C52.932 27.48 54.244 27.336 55.476 27.176C56.708 27.016 57.796 26.84 58.74 26.648ZM48.132 39.608H51.132C50.988 40.648 50.78 41.648 50.508 42.608C50.252 43.552 49.852 44.44 49.308 45.272C48.764 46.088 48.02 46.824 47.076 47.48C46.148 48.152 44.948 48.736 43.476 49.232C43.38 48.976 43.228 48.688 43.02 48.368C42.828 48.064 42.62 47.768 42.396 47.48C42.188 47.192 41.98 46.952 41.772 46.76C43.052 46.392 44.084 45.96 44.868 45.464C45.668 44.952 46.284 44.392 46.716 43.784C47.164 43.176 47.484 42.52 47.676 41.816C47.868 41.096 48.02 40.36 48.132 39.608ZM58.812 41.288H61.716C61.716 41.288 61.708 41.36 61.692 41.504C61.676 41.632 61.66 41.784 61.644 41.96C61.644 42.136 61.628 42.28 61.596 42.392C61.484 43.56 61.356 44.536 61.212 45.32C61.084 46.088 60.932 46.704 60.756 47.168C60.58 47.632 60.364 47.984 60.108 48.224C59.804 48.544 59.476 48.76 59.124 48.872C58.772 48.984 58.356 49.064 57.876 49.112C57.508 49.144 56.996 49.16 56.34 49.16C55.7 49.16 55.028 49.144 54.324 49.112C54.308 48.712 54.212 48.264 54.036 47.768C53.86 47.272 53.652 46.84 53.412 46.472C54.068 46.52 54.716 46.56 55.356 46.592C55.996 46.608 56.46 46.616 56.748 46.616C56.972 46.616 57.156 46.608 57.3 46.592C57.46 46.56 57.612 46.496 57.756 46.4C57.9 46.256 58.036 46.008 58.164 45.656C58.292 45.288 58.404 44.776 58.5 44.12C58.612 43.464 58.708 42.64 58.788 41.648L58.812 41.288ZM55.236 41.288H59.484V43.712H54.516L55.236 41.288ZM53.868 38.84H56.604C56.412 39.832 56.204 40.872 55.98 41.96C55.756 43.048 55.54 43.976 55.332 44.744L52.692 44.384C52.916 43.632 53.132 42.744 53.34 41.72C53.564 40.696 53.74 39.736 53.868 38.84Z" fill="#333333"/>
</svg>
