<svg width="49" height="33" viewBox="0 0 49 33" fill="none" xmlns="http://www.w3.org/2000/svg">
<path d="M31.6996 1.11936C32.4751 -0.373122 34.6102 -0.373121 35.3858 1.11937L48.1548 25.6936C48.8733 27.0763 47.8699 28.7283 46.3117 28.7283H20.7736C19.2154 28.7283 18.212 27.0763 18.9305 25.6936L31.6996 1.11936Z" fill="#5365AC" fill-opacity="0.8"/>
<path d="M31.6995 1.11964C32.475 -0.372847 34.6103 -0.372847 35.3859 1.11964L48.1549 25.6938C48.8508 27.0332 47.931 28.6257 46.4562 28.7239L46.312 28.7283V27.1706C46.7014 27.1704 46.9521 26.7577 46.7728 26.4121L34.0037 1.83798C33.8098 1.46486 33.2755 1.46486 33.0816 1.83798L20.3126 26.4121C20.1332 26.7577 20.3845 27.1706 20.7739 27.1706V28.7283L20.6291 28.7239C19.2019 28.6288 18.2947 27.1344 18.8684 25.8242L18.9304 25.6938L31.6995 1.11964ZM46.312 27.1706V28.7283H20.7739V27.1706H46.312Z" fill="white"/>
<path d="M13.0058 1.11936C13.7814 -0.373122 15.9165 -0.373121 16.692 1.11937L29.4611 25.6936C30.1796 27.0763 29.1762 28.7283 27.618 28.7283H2.07985C0.521639 28.7283 -0.481705 27.0763 0.23676 25.6936L13.0058 1.11936Z" fill="#5365AC" fill-opacity="0.8"/>
<path d="M13.0058 1.11962C13.7813 -0.372862 15.9166 -0.372862 16.6921 1.11962L29.4612 25.6938C30.1571 27.0332 29.2373 28.6256 27.7625 28.7238L27.6183 28.7282V27.1706C28.0076 27.1704 28.2584 26.7577 28.079 26.4121L15.31 1.83797C15.1161 1.46485 14.5818 1.46485 14.3879 1.83797L1.61886 26.4121C1.43951 26.7577 1.69076 27.1706 2.08021 27.1706V28.7282L1.93541 28.7238C0.508224 28.6288 -0.399025 27.1344 0.174657 25.8241L0.236713 25.6938L13.0058 1.11962ZM27.6183 27.1706V28.7282H2.08021V27.1706H27.6183Z" fill="white"/>
<path d="M22.3519 1.12473C23.1271 -0.36901 25.2638 -0.369011 26.039 1.12473L40.6089 29.1995C41.3264 30.5822 40.323 32.2334 38.7653 32.2334H9.62563C8.06788 32.2334 7.0645 30.5822 7.78204 29.1995L22.3519 1.12473Z" fill="#5365AC"/>
<path d="M22.3518 1.12455C23.127 -0.368979 25.2635 -0.368918 26.0388 1.12455L40.6087 29.1995C41.3263 30.5822 40.323 32.2334 38.7652 32.2334V30.6757C39.1547 30.6757 39.4053 30.2629 39.2259 29.9172L24.656 1.84226C24.4622 1.469 23.9284 1.46894 23.7346 1.84226L9.16467 29.9172C8.98543 30.2628 9.23611 30.6756 9.62538 30.6757V32.2334C8.06777 32.2332 7.06441 30.5821 7.78189 29.1995L22.3518 1.12455ZM38.7652 30.6757V32.2334H9.62538V30.6757H38.7652Z" fill="white"/>
</svg>
