<svg width="712" height="60" viewBox="0 0 712 60" fill="none" xmlns="http://www.w3.org/2000/svg">
<mask id="mask0_108_2152" style="mask-type:alpha" maskUnits="userSpaceOnUse" x="0" y="0" width="712" height="60">
<rect width="712" height="44.4064" fill="#D9D9D9"/>
<rect width="46.614" height="30.4782" transform="matrix(0.975715 0.219044 -0.713027 0.701137 650.56 26.0518)" fill="#D9D9D9"/>
<rect width="46.6139" height="30.4782" transform="matrix(-0.975715 0.219044 0.713027 0.701137 63.1243 28.4201)" fill="#D9D9D9"/>
</mask>
<g mask="url(#mask0_108_2152)">
<path d="M354.74 16.7496C458.392 16.7496 552.092 24.2918 619.756 36.4332C653.633 42.512 680.713 49.6972 699.194 57.5377C708.457 61.4674 715.248 65.4334 719.635 69.2799C724.049 73.1511 725.403 76.3209 725.403 78.7477C725.403 81.1745 724.049 84.3443 719.635 88.2155C715.248 92.062 708.457 96.0279 699.194 99.9576C680.713 107.798 653.633 114.983 619.756 121.062C552.092 133.204 458.392 140.745 354.74 140.745C251.088 140.745 157.387 133.204 89.7234 121.062C55.8468 114.983 28.7673 107.798 10.2859 99.9576C1.023 96.028 -5.76797 92.062 -10.1545 88.2155C-14.5693 84.3442 -15.923 81.1745 -15.9231 78.7477C-15.9231 76.3208 -14.5694 73.1513 -10.1545 69.2799C-5.76797 65.4334 1.0229 61.4674 10.2859 57.5377C28.7673 49.6972 55.8468 42.512 89.7234 36.4332C157.387 24.2918 251.088 16.7496 354.74 16.7496Z" stroke="#243B97" stroke-width="11"/>
</g>
</svg>
